HIERARCHY
ROOT Hips
{
	OFFSET 0.000000 88.474243 0.000000
	CHANNELS 6 Xposition Yposition Zposition Zrotation Yrotation Xrotation 
	JOINT Hips_Spine
	{
		OFFSET 0.000000 0.000000 0.000000
		CHANNELS 3 Zrotation Yrotation Xrotation
		JOINT Spine
		{
			OFFSET 0.005100 8.711998 -0.691000
			CHANNELS 3 Zrotation Yrotation Xrotation
			JOINT Spine1
			{
				OFFSET -0.009200 8.660301 -1.275000
				CHANNELS 3 Zrotation Yrotation Xrotation
				JOINT Spine2
				{
					OFFSET 0.006300 9.852501 -1.857000
					CHANNELS 3 Zrotation Yrotation Xrotation
					JOINT Spine2_Neck
					{
						OFFSET 0.000000 0.000000 0.000000
						CHANNELS 3 Zrotation Yrotation Xrotation
						JOINT Neck
						{
							OFFSET 0.016300 11.420799 -0.263300
							CHANNELS 3 Zrotation Yrotation Xrotation
							End Site #name: Head
							{
								OFFSET -0.019200 9.262405 2.362500
							}
						}
					}
					JOINT Spine2_LeftShoulder
					{
						OFFSET 0.000000 0.000000 0.000000
						CHANNELS 3 Zrotation Yrotation Xrotation
						JOINT LeftShoulder
						{
							OFFSET 5.616900 6.732201 -0.345700
							CHANNELS 3 Zrotation Yrotation Xrotation
							JOINT LeftArm
							{
								OFFSET 10.664888 -0.183372 -2.440700
								CHANNELS 3 Zrotation Yrotation Xrotation
								JOINT LeftForeArm
								{
									OFFSET 27.459126 0.000000 0.000000
									CHANNELS 3 Zrotation Yrotation Xrotation
									End Site #name: LeftHand
									{
										OFFSET 21.306858 0.000000 0.000000
									}
								}
							}
						}
					}
					JOINT Spine2_RightShoulder
					{
						OFFSET 0.000000 0.000000 0.000000
						CHANNELS 3 Zrotation Yrotation Xrotation
						JOINT RightShoulder
						{
							OFFSET -5.580300 6.737503 -0.344400
							CHANNELS 3 Zrotation Yrotation Xrotation
							JOINT RightArm
							{
								OFFSET -10.679335 -0.188484 -2.383900
								CHANNELS 3 Zrotation Yrotation Xrotation
								JOINT RightForeArm
								{
									OFFSET -27.503529 0.000000 0.000000
									CHANNELS 3 Zrotation Yrotation Xrotation
									End Site #name: RightHand
									{
										OFFSET -21.306808 0.000000 0.000000
									}
								}
							}
						}
					}
				}
			}
		}
	}
	JOINT Hips_LeftUpLeg
	{
		OFFSET 0.000000 0.000000 0.000000
		CHANNELS 3 Zrotation Yrotation Xrotation
		JOINT LeftUpLeg
		{
			OFFSET 6.857700 -6.739601 0.312100
			CHANNELS 3 Zrotation Yrotation Xrotation
			JOINT LeftLeg
			{
				OFFSET -0.367590 -34.731552 -4.572400
				CHANNELS 3 Zrotation Yrotation Xrotation
				End Site #name: LeftFoot
				{
					OFFSET 0.367590 -34.656704 -6.067400
				}
			}
		}
	}
	JOINT Hips_RightUpLeg
	{
		OFFSET 0.000000 0.000000 0.000000
		CHANNELS 3 Zrotation Yrotation Xrotation
		JOINT RightUpLeg
		{
			OFFSET -6.876100 -6.733299 0.301000
			CHANNELS 3 Zrotation Yrotation Xrotation
			JOINT RightLeg
			{
				OFFSET 0.347353 -34.795158 -4.515900
				CHANNELS 3 Zrotation Yrotation Xrotation
				End Site #name: RightFoot
				{
					OFFSET -0.347353 -34.589367 -6.070300
				}
			}
		}
	}
}
MOTION
Frames: 17
Frame Time: 0.041667
0.021080 0.038993 0.056444 -0.716315 1.062491 -1.991660 0.000000 0.000000 0.000000 1.048143 2.232380 6.234457 -2.377782 1.342892 4.779957 0.000000 0.000000 0.000000 -1.910928 1.179772 2.186184 2.268875 -0.781333 -1.373869 -2.555851 0.829652 4.801800 -0.507202 1.859298 0.173626 -72.425433 -13.760272 45.452721 0.474162 -56.296624 0.167378 -1.506236 1.086181 3.635978 3.518270 0.520333 2.999075 78.548606 -2.413950 49.040438 -0.022284 41.786710 0.977883 0.000000 0.000000 0.000000 2.477460 6.741966 -15.173638 3.488015 7.507438 20.261321 0.000000 0.000000 0.000000 -2.961910 -9.156886 -13.683159 -2.600030 -5.528322 15.860579 
0.046037 0.108471 0.042131 -0.802704 0.904872 -1.726552 0.000000 0.000000 0.000000 -0.154512 1.170094 2.300932 -1.832172 0.981278 4.752408 0.000000 0.000000 0.000000 -1.907826 0.828681 4.373571 2.153344 -0.001740 -1.698425 -1.815126 0.563967 5.319754 1.937583 2.271545 -0.453108 -69.084705 -7.908460 54.168577 0.240536 -51.186142 0.453535 -1.748824 0.471915 4.306286 3.601922 1.151021 1.349126 82.757598 2.244433 50.291012 0.120000 26.659392 0.670822 0.000000 0.000000 -0.000000 2.690550 7.200896 -13.646434 3.455731 8.261637 17.598938 0.000000 0.000000 0.000000 -2.711109 -8.510211 -13.277694 -2.342594 -4.674457 14.923441 
0.121967 0.123225 0.014404 -1.004196 1.147021 -1.904478 0.000000 0.000000 0.000000 -0.424138 1.213597 0.751222 -1.239295 0.837842 4.569507 0.000000 0.000000 0.000000 -1.673284 0.751945 4.138881 1.262027 0.007229 0.091571 -1.356867 0.638654 4.905007 0.373616 3.712750 -0.547701 -67.274074 -6.441041 59.064749 0.378069 -44.449917 -0.021018 -1.298940 0.601997 4.081219 3.760639 1.606575 0.657758 78.811966 1.596426 47.022822 0.045707 24.144473 0.477087 0.000000 0.000000 -0.000000 3.120499 9.223599 -13.097639 3.498953 8.279103 17.138099 0.000000 -0.000000 0.000000 -2.739390 -8.166130 -13.149343 -2.228010 -4.852708 15.027820 
0.215744 0.118566 -0.025881 -1.098039 1.314505 -2.001817 0.000000 0.000000 0.000000 -0.528327 1.301426 0.685607 -1.299558 0.989609 4.757061 0.000000 0.000000 0.000000 -1.557342 0.818422 4.282142 0.599938 -0.542176 2.561033 -1.284491 0.747179 4.950572 0.138541 2.944117 -0.596390 -68.166151 -8.124597 59.515517 0.467562 -34.173770 -0.130140 -1.151553 0.752506 4.313511 3.078290 3.456433 0.972823 76.892819 3.484274 48.072139 0.044693 28.451481 0.320715 0.000000 0.000000 -0.000000 3.247607 10.939702 -13.010081 3.722645 8.318828 17.162002 0.000000 0.000000 0.000000 -2.705387 -8.240760 -13.198623 -2.196587 -4.572051 15.209134 
0.326491 0.112911 -0.066448 -1.130992 1.519326 -2.051699 -0.000000 0.000000 0.000000 -0.707840 1.394525 0.523025 -1.518623 1.084944 4.834424 0.000000 0.000000 0.000000 -1.785948 0.943712 4.394912 0.136993 -0.827230 4.028921 -1.509882 0.766538 5.147580 -0.511110 2.045681 -0.498686 -69.325607 -9.532363 59.599536 0.521466 -30.824396 -0.193058 -1.408832 0.854698 4.517045 2.441168 4.896291 1.325149 75.754656 4.106698 49.856340 0.012105 33.500476 0.300373 0.000000 0.000000 -0.000000 3.309587 12.051836 -13.005468 3.858786 8.481187 17.225890 0.000000 0.000000 0.000000 -2.726026 -8.328548 -13.197749 -2.102427 -4.245566 15.282552 
0.446676 0.106160 -0.105567 -1.157702 1.721500 -2.063015 -0.000000 -0.000000 0.000000 -0.823672 1.463356 0.424215 -1.767681 1.114134 4.978276 0.000000 0.000000 0.000000 -2.062948 1.023803 4.530671 -0.040768 -0.933344 4.398914 -1.751559 0.812720 5.357306 -0.889719 1.329402 -0.385510 -69.870911 -10.124190 59.661468 0.533552 -30.255956 -0.201909 -1.691247 0.881632 4.656056 1.973550 5.887230 1.583983 74.336467 4.611328 50.970903 -0.013027 36.685972 0.323490 0.000000 0.000000 -0.000000 3.314495 12.600551 -13.009902 3.928554 8.595122 17.262500 0.000000 0.000000 0.000000 -2.754523 -8.343193 -13.143241 -1.987679 -3.927989 15.209671 
0.570658 0.099490 -0.143234 -1.191302 1.870089 -2.050431 -0.000000 -0.000000 0.000000 -0.808147 1.543399 0.436604 -1.948881 1.141535 5.078556 0.000000 0.000000 0.000000 -2.240057 1.060246 4.618405 -0.117421 -1.005567 4.569041 -1.904267 0.835814 5.505653 -0.967400 0.998394 -0.321077 -69.867639 -10.077443 59.531517 0.519293 -30.606855 -0.166357 -1.890489 0.906532 4.722116 1.759927 6.006659 1.643934 73.333127 4.824287 51.410291 -0.016679 39.132577 0.365455 0.000000 0.000000 -0.000000 3.296129 12.904806 -13.040068 3.945325 8.628578 17.309904 0.000000 0.000000 0.000000 -2.788005 -8.351532 -13.103284 -1.880055 -3.665495 15.115394 
0.692395 0.093234 -0.179573 -1.240464 1.973786 -2.026107 -0.000000 -0.000000 0.000000 -0.757764 1.596350 0.467539 -2.048551 1.155384 5.149783 0.000000 0.000000 0.000000 -2.345261 1.086161 4.663749 -0.140358 -1.029312 4.643509 -1.993454 0.863423 5.588688 -1.016368 0.893543 -0.284525 -69.728154 -9.905883 59.543199 0.500391 -31.713318 -0.137550 -2.004571 0.933390 4.765183 1.548473 6.026648 1.634574 72.771494 4.982692 51.085268 0.006311 41.122067 0.404992 0.000000 0.000000 -0.000000 3.266966 13.086784 -13.118034 3.968227 8.638563 17.408962 0.000000 0.000000 0.000000 -2.809413 -8.353616 -13.103048 -1.796199 -3.465033 15.059957 
0.805646 0.088257 -0.214095 -1.308535 2.032759 -1.999224 -0.000000 -0.000000 0.000000 -0.722419 1.625159 0.468541 -2.109122 1.168608 5.189385 0.000000 0.000000 0.000000 -2.413400 1.105090 4.686188 -0.174064 -1.040448 4.658713 -2.054730 0.890416 5.632588 -1.036528 1.012592 -0.268507 -69.600140 -9.639555 59.642051 0.486676 -32.720293 -0.127668 -2.072144 0.950690 4.785394 1.354297 6.080343 1.629637 72.259825 5.017201 50.541730 0.025827 44.141128 0.451251 0.000000 0.000000 -0.000000 3.243279 13.201726 -13.207308 3.998843 8.635948 17.525731 0.000000 0.000000 0.000000 -2.816001 -8.352367 -13.125422 -1.740928 -3.336774 15.027684 
0.910140 0.084773 -0.246868 -1.378417 2.047942 -1.977276 -0.000000 -0.000000 0.000000 -0.702396 1.650840 0.452215 -2.162528 1.177896 5.194061 0.000000 0.000000 0.000000 -2.472270 1.113537 4.675357 -0.207590 -1.046310 4.660408 -2.104386 0.903394 5.629432 -1.013695 1.247908 -0.269418 -69.491147 -9.430676 59.743122 0.474712 -33.581699 -0.117125 -2.129077 0.961077 4.777039 1.156276 6.171837 1.634582 71.661665 4.843213 50.107464 0.052576 48.574753 0.497977 0.000000 0.000000 -0.000000 3.230299 13.262278 -13.274424 4.032919 8.637093 17.615797 0.000000 0.000000 -0.000000 -2.811300 -8.349894 -13.149717 -1.710292 -3.265160 15.010932 
1.005541 0.082574 -0.278243 -1.445506 2.054046 -1.963023 -0.000000 -0.000000 0.000000 -0.690263 1.668897 0.435913 -2.216989 1.185525 5.177769 0.000000 0.000000 0.000000 -2.533321 1.119886 4.646982 -0.224937 -1.039664 4.660696 -2.156497 0.907748 5.595406 -0.984622 1.506218 -0.277835 -69.439626 -9.247310 59.828524 0.467784 -34.386085 -0.108019 -2.191009 0.967882 4.748556 0.983872 6.314721 1.663733 70.991702 4.621521 49.699206 0.093133 53.940249 0.553375 0.000000 0.000000 -0.000000 3.227760 13.296913 -13.322423 4.059983 8.638228 17.677686 0.000000 0.000000 -0.000000 -2.800823 -8.343684 -13.165257 -1.699421 -3.237304 14.996261 
1.091515 0.081566 -0.308549 -1.506611 2.069804 -1.957632 -0.000000 -0.000000 0.000000 -0.679084 1.683860 0.440322 -2.273665 1.193482 5.141962 0.000000 0.000000 0.000000 -2.594003 1.124288 4.601888 -0.231234 -1.035723 4.655968 -2.208979 0.908809 5.548345 -0.966347 1.721854 -0.287084 -69.421334 -9.094044 59.885201 0.465062 -35.131511 -0.100934 -2.249294 0.972060 4.704092 0.846711 6.462612 1.700781 70.420159 4.500908 49.356058 0.149528 59.372878 0.617278 0.000000 0.000000 -0.000000 3.235396 13.306688 -13.349618 4.080857 8.643328 17.706673 0.000000 0.000000 -0.000000 -2.789806 -8.337693 -13.160992 -1.699763 -3.241612 14.963567 
1.167800 0.081297 -0.338065 -1.558106 2.093969 -1.960203 0.000000 -0.000000 0.000000 -0.663440 1.692940 0.468399 -2.327672 1.200843 5.104469 0.000000 0.000000 0.000000 -2.649940 1.129537 4.553414 -0.234519 -1.033695 4.663374 -2.256590 0.906953 5.497848 -0.958346 1.879343 -0.294539 -69.452322 -8.964426 59.923627 0.464985 -35.697356 -0.094240 -2.304502 0.977217 4.659573 0.738068 6.603602 1.737720 70.033434 4.434932 49.032469 0.217822 64.142290 0.688450 0.000000 0.000000 -0.000000 3.247232 13.308602 -13.359961 4.092686 8.649391 17.715677 0.000000 0.000000 -0.000000 -2.777399 -8.329815 -13.143072 -1.705892 -3.261935 14.923329 
1.234813 0.081567 -0.367010 -1.604473 2.120119 -1.969503 0.000000 -0.000000 0.000000 -0.644950 1.701852 0.504480 -2.373623 1.207282 5.071890 0.000000 0.000000 0.000000 -2.697847 1.136654 4.510152 -0.237824 -1.033021 4.676967 -2.298981 0.906755 5.458693 -0.950867 1.987876 -0.296741 -69.490532 -8.858259 59.996081 0.465455 -36.142840 -0.086038 -2.349599 0.980406 4.620568 0.659029 6.739948 1.770467 69.840337 4.364855 48.702917 0.275212 67.017523 0.749573 0.000000 0.000000 -0.000000 3.266512 13.303851 -13.350718 4.097258 8.659391 17.706913 0.000000 0.000000 -0.000000 -2.762861 -8.322953 -13.113186 -1.718061 -3.289309 14.876866 
1.293031 0.082173 -0.395673 -1.645889 2.146566 -1.983380 0.000000 -0.000000 0.000000 -0.624302 1.711035 0.542227 -2.409215 1.213351 5.048837 0.000000 0.000000 0.000000 -2.734463 1.143084 4.478683 -0.241173 -1.037976 4.699555 -2.331484 0.907056 5.429175 -0.939212 2.059818 -0.296246 -69.525298 -8.754778 60.063324 0.468581 -36.488820 -0.080910 -2.385103 0.984737 4.592141 0.593823 6.875592 1.798689 69.839828 4.232908 48.451744 0.319913 69.012121 0.797125 0.000000 0.000000 -0.000000 3.288154 13.293418 -13.334566 4.096520 8.663914 17.692929 0.000000 0.000000 -0.000000 -2.746345 -8.314773 -13.071597 -1.730802 -3.316866 14.824315 
1.342944 0.082918 -0.424219 -1.681758 2.172622 -2.000263 0.000000 -0.000000 0.000000 -0.602239 1.720236 0.577028 -2.435413 1.216845 5.036646 0.000000 0.000000 0.000000 -2.760386 1.149919 4.458560 -0.244100 -1.046390 4.732536 -2.354397 0.907638 5.413366 -0.926749 2.100107 -0.295195 -69.572562 -8.709404 60.126319 0.469865 -36.810639 -0.074374 -2.409405 0.988048 4.574022 0.534736 7.019576 1.825747 70.001937 4.036139 48.353198 0.346863 70.154210 0.824436 0.000000 0.000000 -0.000000 3.310513 13.285483 -13.315501 4.091268 8.660683 17.686451 0.000000 0.000000 -0.000000 -2.731327 -8.306747 -13.034449 -1.739940 -3.334569 14.787282 
1.385001 0.083671 -0.452962 -1.711923 2.193436 -2.018138 0.000000 -0.000000 0.000000 -0.581880 1.724735 0.602137 -2.452980 1.217877 5.031306 0.000000 0.000000 0.000000 -2.776487 1.152657 4.450877 -0.246394 -1.056785 4.772608 -2.368472 0.907106 5.406177 -0.915403 2.115546 -0.291189 -69.606712 -8.687412 60.186430 0.473377 -37.170094 -0.070737 -2.424746 0.990582 4.564845 0.493263 7.163590 1.854621 70.294261 3.820136 48.347042 0.352047 70.549426 0.828115 0.000000 0.000000 -0.000000 3.333776 13.270139 -13.291016 4.083864 8.654933 17.676900 0.000000 0.000000 0.000000 -2.717325 -8.301630 -12.995210 -1.743055 -3.342567 14.753136 
